<svg width="379" height="369" viewBox="0 0 379 369" fill="none" xmlns="http://www.w3.org/2000/svg">
<path d="M378.9 273.687C378.976 272.819 378.796 271.948 378.383 271.181C377.969 270.414 377.34 269.784 376.573 269.37V269.37C371.15 266.733 366.014 263.543 361.248 259.849C348.037 249.869 337.974 236.305 332.259 220.772V220.772C331.964 219.953 331.429 219.24 330.725 218.727C330.021 218.214 329.178 217.924 328.307 217.894C327.44 217.845 326.578 218.058 325.833 218.505C325.089 218.953 324.497 219.614 324.134 220.403V220.403C319.197 230.565 312.337 239.674 303.934 247.23C298.342 252.266 292.138 256.58 285.47 260.071C192.147 250.24 106.359 204.373 46.3929 132.249C37.3732 121.427 28.9886 110.092 21.2813 98.3013C17.9063 104.713 14.9099 111.317 12.3076 118.08C20.9029 130.385 30.2126 142.176 40.1888 153.393C103.139 224.318 190.487 268.986 284.879 278.521C300.633 288.751 312.644 303.809 319.112 321.436V321.436C319.402 322.258 319.93 322.975 320.629 323.497C321.328 324.018 322.166 324.32 323.038 324.363C323.909 324.407 324.774 324.19 325.521 323.741C326.269 323.292 326.866 322.631 327.236 321.841C337.087 301.296 354.578 285.408 375.982 277.561V277.561C376.614 277.346 377.176 276.963 377.607 276.454C378.361 275.72 378.821 274.736 378.9 273.687Z" fill="white"/>
<path d="M368.929 174.758C366.878 136.199 352.771 99.2555 328.596 69.1312C304.421 39.0069 271.397 17.2206 234.176 6.84171C196.955 -3.53722 157.413 -1.98565 121.121 11.2778C84.8288 24.5413 53.616 48.8482 31.8799 80.7739L36.7545 88.1539C42.4415 96.8623 48.6086 105.349 55.2189 113.541C71.0343 84.9084 95.9189 62.335 125.965 49.3656C156.011 36.3962 189.517 33.7652 221.222 41.8858C252.927 50.0064 281.035 68.4187 301.132 94.2315C321.229 120.044 332.178 151.796 332.259 184.5C332.259 187.821 332.259 191.142 331.889 194.389C333.405 195.147 334.56 196.474 335.102 198.079V198.079L335.988 200.367C341.727 214.932 350.102 228.316 360.694 239.85V239.85C361.137 238.411 361.506 236.972 361.949 235.496C367.64 215.779 369.999 195.251 368.929 174.758V174.758Z" fill="white"/>
<path d="M290.862 302.58C288.277 299.738 285.581 297.045 282.811 294.498L279.488 297.34C257.963 315.386 231.733 326.923 203.877 330.597C176.021 334.272 147.693 329.932 122.219 318.086C96.7444 306.24 75.1796 287.379 60.0549 263.718C44.9302 240.057 36.873 212.576 36.8288 184.5C36.8288 181.953 36.8288 179.444 37.0134 177.12C33.3205 173.43 29.8492 169.74 26.3779 165.681C18.9922 157.452 12.0496 148.854 5.43931 139.851C-3.90249 177.453 -1.16081 217.039 13.2756 252.997C27.712 288.955 53.1105 319.459 85.8697 340.184C118.629 360.91 157.087 370.805 195.789 368.466C234.492 366.128 271.476 351.674 301.497 327.155L306.113 323.465C301.741 316.011 296.632 309.014 290.862 302.58V302.58Z" fill="white"/>
</svg>
