<svg width="402" height="362" viewBox="0 0 402 362" fill="none" xmlns="http://www.w3.org/2000/svg">
<path d="M21.5181 343.472C19.3552 343.492 17.1952 343.311 15.0664 342.93C12.6913 342.571 10.4179 341.723 8.39157 340.44C6.36528 339.158 4.6307 337.47 3.2988 335.484C-3.97076 324.112 2.43553 305.655 57.0027 252.494C57.8376 251.596 58.8473 250.876 59.9706 250.378C61.094 249.879 62.3075 249.613 63.5377 249.594C64.768 249.575 65.9892 249.805 67.1274 250.269C68.2656 250.733 69.2972 251.421 70.1594 252.293C71.0217 253.165 71.6967 254.201 72.1436 255.34C72.5906 256.478 72.8 257.695 72.7594 258.917C72.7187 260.138 72.4287 261.339 71.907 262.445C71.3853 263.552 70.6428 264.542 69.7244 265.355C28.1062 305.97 20.6094 320.908 19.3373 325.421C37.284 329.121 129.017 293.831 220.931 229.659C311.256 166.706 378.181 91.6127 382.497 72.7041C376.954 72.7041 359.78 75.7728 310.756 98.788C309.673 99.3181 308.494 99.6284 307.288 99.7008C306.083 99.7731 304.875 99.6062 303.735 99.2095C302.596 98.8129 301.547 98.1947 300.651 97.3909C299.754 96.5871 299.028 95.6139 298.515 94.5282C298.002 93.4425 297.711 92.266 297.661 91.0676C297.611 89.8692 297.801 88.6728 298.222 87.5484C298.642 86.424 299.284 85.3942 300.11 84.5191C300.936 83.644 301.929 82.9412 303.032 82.4517C372.411 50.0047 390.948 50.456 398.445 61.6928C401.898 66.9728 411.076 80.9625 353.646 140.847C316.354 179.208 275.476 213.963 231.563 244.642C161.048 293.38 60.7283 343.472 21.5181 343.472Z" fill="white"/>
<path d="M380.499 154.523C374.04 196.059 353.191 234.053 321.549 261.956C289.907 289.859 249.454 305.921 207.165 307.372H202.349H200.487C190.333 307.34 180.219 306.097 170.363 303.671L168.864 304.529C148.509 315.901 127.473 326.732 107.3 335.802C134.877 352.226 166.347 361.089 198.499 361.486C230.651 361.883 262.334 353.801 290.313 338.063C318.293 322.326 341.568 299.497 357.763 271.906C373.958 244.315 382.494 212.951 382.498 181.014C382.503 172.146 381.835 163.291 380.499 154.523Z" fill="white"/>
<path d="M113.431 272.713C95.3166 255.721 82.6245 233.821 76.9296 209.729C71.2347 185.636 72.7877 160.414 81.396 137.19C90.0042 113.967 105.289 93.7658 125.353 79.0933C145.417 64.4208 169.377 55.9231 194.259 54.6548C151.924 56.1816 111.456 72.35 79.8481 100.366C48.2405 128.382 27.4794 166.485 21.1528 208.09C26.1311 240.539 39.923 271.026 61.0446 296.27C75.9017 290.584 93.7576 282.641 113.431 272.713Z" fill="white"/>
<path d="M366.593 153.213L364.321 155.74C353.053 167.338 340.786 179.116 327.973 190.804C325.604 221.522 312.018 250.322 289.77 271.788C267.522 293.255 238.144 305.908 207.162 307.37C249.45 305.918 289.903 289.857 321.546 261.954C353.188 234.051 374.036 196.056 380.496 154.521C379.814 150.009 378.996 145.496 377.997 140.983C374.408 144.909 370.636 148.971 366.593 153.213Z" fill="white"/>
<path d="M200.758 0.500491C174.594 0.511821 148.741 6.13429 124.966 16.9835C101.19 27.8328 80.0541 43.653 63.0014 63.3628C45.9487 83.0726 33.3817 106.207 26.1595 131.185C18.9373 156.163 17.2302 182.395 21.1548 208.089C27.4814 166.484 48.2425 128.381 79.8501 100.365C111.458 72.3492 151.926 56.1808 194.261 54.654C196.442 54.654 198.805 54.654 200.804 54.654C224.942 54.6592 248.58 61.4849 268.958 74.3342C289.337 87.1835 305.614 105.526 315.89 127.22C321.797 121.353 327.234 115.757 332.201 110.432C341.288 100.594 348.921 91.7943 354.419 84.5739C338.031 58.8188 315.346 37.6027 288.478 22.9023C261.61 8.20178 231.433 0.495206 200.758 0.500491Z" fill="white"/>
<path d="M21.5181 343.472C19.3552 343.492 17.1952 343.311 15.0664 342.93C12.6913 342.571 10.4179 341.723 8.39157 340.44C6.36528 339.158 4.6307 337.47 3.2988 335.484C-3.97076 324.112 2.43553 305.655 57.0027 252.494C57.8376 251.596 58.8473 250.876 59.9706 250.378C61.094 249.879 62.3075 249.613 63.5377 249.594C64.768 249.575 65.9892 249.805 67.1274 250.269C68.2656 250.733 69.2972 251.421 70.1594 252.293C71.0217 253.165 71.6967 254.201 72.1436 255.34C72.5906 256.478 72.8 257.695 72.7594 258.917C72.7187 260.138 72.4287 261.339 71.907 262.445C71.3853 263.552 70.6428 264.542 69.7244 265.355C28.1062 305.97 20.6094 320.908 19.3373 325.421C37.284 329.121 129.017 293.831 220.931 229.659C311.256 166.706 378.181 91.6127 382.497 72.7041C376.954 72.7041 359.78 75.7728 310.756 98.788C309.673 99.3181 308.494 99.6284 307.288 99.7008C306.083 99.7731 304.875 99.6062 303.735 99.2095C302.596 98.8129 301.547 98.1947 300.651 97.3909C299.754 96.5871 299.028 95.6139 298.515 94.5282C298.002 93.4425 297.711 92.266 297.661 91.0676C297.611 89.8692 297.801 88.6728 298.222 87.5484C298.642 86.424 299.284 85.3942 300.11 84.5191C300.936 83.644 301.929 82.9412 303.032 82.4517C372.411 50.0047 390.948 50.456 398.445 61.6928C401.898 66.9728 411.076 80.9625 353.646 140.847C316.354 179.208 275.476 213.963 231.563 244.642C161.048 293.38 60.7283 343.472 21.5181 343.472Z" fill="white"/>
<path d="M380.499 154.523C374.04 196.059 353.191 234.053 321.549 261.956C289.907 289.859 249.454 305.921 207.165 307.372H202.349H200.487C190.333 307.34 180.219 306.097 170.363 303.671L168.864 304.529C148.509 315.901 127.473 326.732 107.3 335.802C134.877 352.226 166.347 361.089 198.499 361.486C230.651 361.883 262.334 353.801 290.313 338.063C318.293 322.326 341.568 299.497 357.763 271.906C373.958 244.315 382.494 212.951 382.498 181.014C382.503 172.146 381.835 163.291 380.499 154.523Z" fill="white"/>
<path d="M113.431 272.713C95.3166 255.721 82.6245 233.821 76.9296 209.729C71.2347 185.636 72.7877 160.414 81.396 137.19C90.0042 113.967 105.289 93.7658 125.353 79.0933C145.417 64.4208 169.377 55.9231 194.259 54.6548C151.924 56.1816 111.456 72.35 79.8481 100.366C48.2405 128.382 27.4794 166.485 21.1528 208.09C26.1311 240.539 39.923 271.026 61.0446 296.27C75.9017 290.584 93.7576 282.641 113.431 272.713Z" fill="white"/>
<path d="M366.593 153.213L364.321 155.74C353.053 167.338 340.786 179.116 327.973 190.804C325.604 221.522 312.018 250.322 289.77 271.788C267.522 293.255 238.144 305.908 207.162 307.37C249.45 305.918 289.903 289.857 321.546 261.954C353.188 234.051 374.036 196.056 380.496 154.521C379.814 150.009 378.996 145.496 377.997 140.983C374.408 144.909 370.636 148.971 366.593 153.213Z" fill="white"/>
<path d="M200.758 0.500491C174.594 0.511821 148.741 6.13429 124.966 16.9835C101.19 27.8328 80.0541 43.653 63.0014 63.3628C45.9487 83.0726 33.3817 106.207 26.1595 131.185C18.9373 156.163 17.2302 182.395 21.1548 208.089C27.4814 166.484 48.2425 128.381 79.8501 100.365C111.458 72.3492 151.926 56.1808 194.261 54.654C196.442 54.654 198.805 54.654 200.804 54.654C224.942 54.6592 248.58 61.4849 268.958 74.3342C289.337 87.1835 305.614 105.526 315.89 127.22C321.797 121.353 327.234 115.757 332.201 110.432C341.288 100.594 348.921 91.7943 354.419 84.5739C338.031 58.8188 315.346 37.6027 288.478 22.9023C261.61 8.20178 231.433 0.495206 200.758 0.500491Z" fill="white"/>
</svg>
